<?xml version="1.0" encoding="utf-8"?>
<!-- Generator: Adobe Illustrator 23.0.1, SVG Export Plug-In . SVG Version: 6.00 Build 0)  -->
<svg version="1.1" id="レイヤー_1" xmlns="http://www.w3.org/2000/svg" xmlns:xlink="http://www.w3.org/1999/xlink" x="0px"
	 y="0px" viewBox="0 0 623.62 368.5" style="enable-background:new 0 0 623.62 368.5;" xml:space="preserve">
<g>
	<g>
		<g>
			<path d="M186.17,133.44c-0.39,15.06-1.32,30.12-1.9,45.17c-0.25,6.69-0.73,13.34-0.75,20.04c-0.02,6.99,0.79,13.87,0.88,20.83
				c0.06,4.56,7.14,4.57,7.09,0c-0.08-6.67-0.91-13.26-0.88-19.96c0.02-6.99,0.48-13.93,0.75-20.91c0.58-15.05,1.5-30.11,1.9-45.17
				C193.38,128.88,186.29,128.88,186.17,133.44L186.17,133.44z"/>
		</g>
	</g>
	<g>
		<g>
			<path d="M181.76,137.93c3.96,0,7.54,0.1,11.43,0.82c4.46,0.82,6.37-6.01,1.88-6.83c-2.03-0.38-4.04-0.92-6.11-1.05
				c-2.38-0.15-4.81-0.02-7.2-0.02C177.2,130.84,177.2,137.92,181.76,137.93L181.76,137.93z"/>
		</g>
	</g>
	<g>
		<g>
			<path d="M180,225.86c4.08,0,8.19-0.16,12.26,0.12c2.91,0.2,5.77,0.14,7.92-2.11c3.15-3.3-1.86-8.32-5.01-5.01
				c-0.72,0.75-4.3-0.07-5.36-0.09c-3.26-0.07-6.54,0-9.8,0C175.44,218.77,175.43,225.86,180,225.86L180,225.86z"/>
		</g>
	</g>
	<g>
		<g>
			<path d="M210.03,186.39c-0.1,6.03-0.59,12.01-1.25,18.01c-0.31,2.84-0.53,5.67-0.53,8.54c0,2.32,0.66,5-0.06,7.23
				c2.28,0,4.56,0,6.83,0c-1.69-5.49-0.85-13.32,0.98-18.7c1.36-4,7.98-14.45,13.47-10.04c3.05,2.45,1.94,9.99,1.56,13.31
				c-0.66,5.72-2.69,11.03-0.21,16.53c1.87,4.15,7.98,0.55,6.12-3.58c-1.73-3.83,1.11-10.93,1.37-15.07
				c0.19-3.02,0.18-6.1-0.37-9.08c-1.17-6.35-5.65-10.49-12.28-9.78c-16.18,1.73-21.46,25.34-17.49,38.28
				c1.04,3.39,5.76,3.34,6.83,0c1.53-4.77,0.16-10.75,0.64-15.74c0.63-6.65,1.35-13.23,1.46-19.91
				C217.19,181.83,210.1,181.82,210.03,186.39L210.03,186.39z"/>
		</g>
	</g>
	<g>
		<g>
			<path d="M264.03,192.42c-1.56-8.43-15.11-8.05-19.46-2.34c-3.19,4.19-1.23,7.67,1.73,11.24c1.9,2.29,4.31,4.73,5.09,7.68
				c0.71,2.69-0.11,7.49-2.62,3.36c-2.37-3.89-8.5-0.33-6.12,3.58c2.13,3.5,3.94,6.35,8.59,5.4c4.19-0.86,7.48-3.79,7.63-8.18
				c0.18-5.07-1.6-9.34-4.65-13.29c-0.69-0.89-4.32-4.18-4.28-5.23c0.1-2.23,6.9-2.22,7.25-0.35
				C258.02,198.78,264.85,196.88,264.03,192.42L264.03,192.42z"/>
		</g>
	</g>
	<g>
		<g>
			<path d="M270.64,194.62c5.27,0,10.56,0.15,15.76,1.01c3.2,0.53,7.12,0.39,7.22-3.86c0.1-4.56-6.99-4.56-7.09,0
				c0,0.13-0.01,0.26-0.01,0.38c0.58-1.02,1.17-2.04,1.75-3.06c0.66-0.48-0.35-0.31-0.89-0.47c-1.7-0.52-3.88-0.62-5.63-0.72
				c-3.71-0.2-7.4-0.37-11.12-0.37C266.08,187.53,266.08,194.62,270.64,194.62L270.64,194.62z"/>
		</g>
	</g>
	<g>
		<g>
			<path d="M277.14,186.23c-0.02,9.41-0.83,18.77-1.02,28.16c-0.06,2.85,0.26,6.29,2.35,8.47c2.44,2.54,6.15,1.93,9.34,1.92
				c4.56-0.01,4.57-7.1,0-7.09c-0.83,0-3.02,0.35-3.84-0.17c-1.23-0.77-0.78-2.66-0.73-4.06c0.09-2.72,0.51-5.44,0.62-8.17
				c0.28-6.35,0.35-12.71,0.36-19.07C284.24,181.67,277.15,181.66,277.14,186.23L277.14,186.23z"/>
		</g>
	</g>
	<g>
		<g>
			<path d="M321.83,186c-5.72-0.65-11.38-2.39-16.15,2.09c-3.93,3.69-6.6,11.21-4.84,16.45c1.81,5.39,7.76,8.27,13.12,6.67
				c2.81-0.84,5.32-2.61,7.2-4.84c0.86-1.01,1.6-2.14,2.19-3.33c0.34-0.68,0.68-2.97,0.92-3.22c-2.02-0.84-4.03-1.67-6.05-2.51
				c0.55,7.5,0.91,16.24-0.87,23.56c-0.89,3.68-2.27,7.5-5.86,9.32c-1.28,0.65-3.89,1.61-5.44,1.32c-2.29-0.43-1.89-1.57-2.87-3.2
				c-2.35-3.9-8.48-0.35-6.12,3.58c2.26,3.75,4,6.6,8.99,6.71c5.11,0.12,10.53-2.3,13.76-6.23c3.41-4.16,4.74-9.76,5.34-14.99
				c0.74-6.49,0.64-13.55,0.16-20.06c-0.21-2.91-3.8-4.86-6.05-2.51c-1.49,1.56-1.46,3.21-2.32,5.08c-0.71,1.56-1.92,3.03-3.47,3.84
				c-3.82,2.01-5.96-0.63-5.88-4.05c0.06-2.91,2.26-6.73,5.09-7.51c2.79-0.77,6.32,0.6,9.14,0.92
				C326.35,193.6,326.32,186.51,321.83,186L321.83,186z"/>
		</g>
	</g>
	<g>
		<g>
			<path d="M331.89,190.93c0,9.19,0.33,18.46-0.01,27.65c2.36,0,4.72,0,7.09,0c0.03-4.73,0.45-9.65,1.78-14.21
				c0.65-2.22,1.57-5.1,3.27-6.8c1.93-1.93,4.53-1.42,6.96-1.36c4.56,0.1,4.56-6.99,0-7.09c-6.94-0.15-11.59,1.36-14.91,7.81
				c-3.32,6.46-4.15,14.48-4.19,21.64c-0.03,4.57,6.92,4.55,7.09,0c0.34-9.19,0.01-18.45,0.01-27.65
				C338.98,186.37,331.89,186.37,331.89,190.93L331.89,190.93z"/>
		</g>
	</g>
	<g>
		<g>
			<path d="M377.22,184.96c-6.16-0.11-13.77,1.23-16.53,7.61c-2.12,4.91-1.4,12.6,1.82,16.88c3.93,5.24,9.37,6.24,14.22,1.37
				c5.26-5.3,6.13-13.76,7.12-20.73c-2.28,0-4.56,0-6.83,0c1.94,7.79,3.81,19.06,10.34,24.5c3.48,2.9,8.52-2.09,5.01-5.01
				c-5.49-4.57-6.88-14.8-8.51-21.37c-0.79-3.18-6.33-3.57-6.83,0c-0.54,3.81-0.95,7.57-2.16,11.23c-0.65,1.96-1.23,3.97-2.55,5.6
				c-1.62,2.01-1.53,2.19-3.27,1.12c-2.53-1.56-2.71-6.86-2.17-9.34c1.04-4.72,6.38-4.84,10.36-4.76
				C381.78,192.13,381.78,185.05,377.22,184.96L377.22,184.96z"/>
		</g>
	</g>
	<g>
		<g>
			<path d="M405.75,187.47c-0.02,8.51,0.67,17.19,0.28,25.67c-0.18,3.93,6.2,4.9,6.96,0.94c0.66-3.44,1.19-6.91,1.73-10.38
				c0.5-3.16,0.9-8.68,4.15-10.42c-0.39-0.85-0.43-0.9-0.14-0.17c0.21,0.48,0.35,0.98,0.43,1.5c0.28,1.11,0.47,2.3,0.65,3.43
				c0.68,4.36,0.71,8.8,0.51,13.2c2.36,0,4.72,0,7.09,0c0.02-3.1,0.18-6.23,0.59-9.3c0.57-4.29,4.03-11.24,8.59-5.46
				c4.18,5.3,2.35,13.75,3.63,19.99c0.91,4.46,7.75,2.58,6.83-1.88c-1.87-9.14,0.4-25.86-12.9-27.68
				c-12.62-1.73-13.78,16.07-13.82,24.33c-0.02,4.58,6.88,4.54,7.09,0c0.26-5.78,1.64-25.14-7.92-25.32
				c-11.79-0.23-11.86,18.63-13.33,26.27c2.32,0.31,4.64,0.63,6.96,0.94c0.39-8.48-0.3-17.16-0.28-25.67
				C412.84,182.91,405.76,182.9,405.75,187.47L405.75,187.47z"/>
		</g>
	</g>
</g>
</svg>
