<?xml version="1.0" encoding="utf-8"?>
<!-- Generator: Adobe Illustrator 23.0.1, SVG Export Plug-In . SVG Version: 6.00 Build 0)  -->
<svg version="1.1" id="レイヤー_1" xmlns="http://www.w3.org/2000/svg" xmlns:xlink="http://www.w3.org/1999/xlink" x="0px"
	 y="0px" viewBox="0 0 623.62 368.5" style="enable-background:new 0 0 623.62 368.5;" xml:space="preserve">
<g>
	<g>
		<g>
			<path d="M223.87,162.73c-7.71-16.08-16.27-33.66-35.5-37.28c-7.88-1.48-16.23-1.89-23.69,1.45c-7.72,3.46-13.9,10.2-18.44,17.2
				c-10.46,16.14-10.58,36.49-11.75,55.04c-1.13,17.85,13.66,29.33,29.36,34.36c8.68,2.78,20.92,4.26,28.99-1.06
				c6.69-4.41,8.9-13.3,11.43-20.39c1.54-4.3-5.31-6.15-6.83-1.88c-1.83,5.13-3.27,11.91-7.57,15.64
				c-5.56,4.83-16.13,3.15-22.53,1.33c-6.49-1.84-12.89-5.06-17.99-9.51c-6.51-5.68-8.24-11.78-7.62-20.24
				c1.12-15.28,0.97-31.79,8.29-45.69c3.3-6.27,8.05-12.37,13.99-16.35c6.37-4.26,13.64-4.43,21-3.33
				c18.21,2.72,25.59,19.32,32.76,34.27C219.72,170.42,225.83,166.83,223.87,162.73L223.87,162.73z"/>
		</g>
	</g>
	<g>
		<g>
			<path d="M188.63,206.89c11.55,1.04,22.73,4.58,34.39,4.44c4.56-0.05,4.57-7.14,0-7.09c-11.64,0.14-22.86-3.39-34.39-4.44
				C184.09,199.4,184.12,206.48,188.63,206.89L188.63,206.89z"/>
		</g>
	</g>
	<g>
		<g>
			<path d="M243.89,187.82c-0.06,11.84-1.05,23.66-1.11,35.5c-0.02,4.56,7.07,4.57,7.09,0c0.06-11.84,1.05-23.66,1.11-35.5
				C251,183.26,243.91,183.25,243.89,187.82L243.89,187.82z"/>
		</g>
	</g>
	<g>
		<g>
			<path d="M248.54,176.94c4.56,0,4.57-7.09,0-7.09C243.98,169.85,243.98,176.94,248.54,176.94L248.54,176.94z"/>
		</g>
	</g>
	<g>
		<g>
			<path d="M270.73,195.8c5.92,0,11.83,0,17.75,0c4.56,0,4.57-7.09,0-7.09c-5.92,0-11.83,0-17.75,0
				C266.17,188.71,266.17,195.8,270.73,195.8L270.73,195.8z"/>
		</g>
	</g>
	<g>
		<g>
			<path d="M452.47,154.53c0,14.86,0.01,29.71,0,44.57c0,6.93,0.24,13.67-0.74,20.55c-0.75,5.28,1.41,12.3-1.11,17.07
				c2.16,0.91,4.32,1.82,6.48,2.73c1.37-8.04,0.58-16.43,4.27-23.87c2.78-5.6,11.67-13.25,18.03-7.63
				c3.82,3.38,3.42,10.34,1.18,14.44c-1.93,3.54-5.82,6.58-9.53,8.03c-3.48,1.36-5.54,1.11-7.53-2.23
				c-2.33-3.92-8.46-0.36-6.12,3.58c5.77,9.69,16.13,7.01,23.75,0.65c7.24-6.05,10.58-16.46,6.28-25.26
				c-5-10.24-18.19-9.34-26.15-3.1c-10.39,8.15-9.04,21.98-11,33.52c-0.63,3.69,4.46,6.55,6.48,2.73
				c2.66-5.04,1.63-10.02,1.63-15.47c0-3.3,0.82-6.49,1.12-9.77c0.37-4,0.1-8.04,0.07-12.05c-0.13-16.16-0.01-32.32-0.01-48.48
				C459.56,149.97,452.47,149.97,452.47,154.53L452.47,154.53z"/>
		</g>
	</g>
	<g>
		<g>
			<path d="M277.12,177.17c0.04,4.28,0.27,8.55-0.11,12.82c-0.4,4.6-1.32,9.13-1.6,13.74c-0.46,7.58-2.35,15.4-1.15,22.99
				c0.25,1.6,1.98,2.5,3.42,2.6c2.01,0.14,3.99-0.46,6.04-0.41c4.56,0.1,4.56-6.99,0-7.09c-1.99-0.04-4.11,0.55-6.04,0.41
				c1.14,0.87,2.28,1.73,3.42,2.6c-1.13-7.16,0.91-15.75,1.55-22.94c0.75-8.37,1.65-16.29,1.57-24.72
				C284.16,172.61,277.07,172.6,277.12,177.17L277.12,177.17z"/>
		</g>
	</g>
	<g>
		<g>
			<path d="M329.59,144.22c0.08,15.69-1.65,32.03-4.64,47.42c-2.68,13.76-3.29,28.27-3.29,42.27c0,4.56,7.09,4.57,7.09,0
				c0-14.76,1.06-29.6,3.76-44.1c2.75-14.78,4.24-30.55,4.17-45.58C336.65,139.66,329.56,139.65,329.59,144.22L329.59,144.22z"/>
		</g>
	</g>
	<g>
		<g>
			<path d="M332.52,188.64c12.3-0.07,23.69,0.54,35.66,3.53c4.43,1.1,6.31-5.73,1.88-6.83c-12.62-3.15-24.59-3.86-37.55-3.79
				C327.96,181.58,327.95,188.67,332.52,188.64L332.52,188.64z"/>
		</g>
	</g>
	<g>
		<g>
			<path d="M372.9,148.49c-0.66,16.7-3.83,33.17-4.59,49.86c-0.37,8.14-0.25,16.34-1.18,24.45c-0.59,5.12-2.54,11.33,0.77,15.94
				c2.64,3.67,8.79,0.14,6.12-3.58c-1.42-1.97-0.87-4.71-0.56-6.97c0.46-3.31,0.92-6.59,1.14-9.94c0.52-7.9,0.46-15.84,1.04-23.73
				c1.14-15.38,3.74-30.62,4.35-46.04C380.17,143.93,373.08,143.94,372.9,148.49L372.9,148.49z"/>
		</g>
	</g>
	<g>
		<g>
			<path d="M399.75,210.11c-0.12,4.79-0.64,9.54-0.71,14.34c-0.04,3.2-0.41,6.87,1.37,9.72c2.86,4.56,8.96,5.19,13.84,5.22
				c6.61,0.05,12.72-1.16,16.17-7.42c1.96-3.56,2.72-7.81,3.4-11.78c0.69-4.05-0.15-7.65-0.13-11.63c0.01-4.56-7.05-4.57-7.09,0
				c-0.04,5.56-1.24,11.23-1.71,16.79c-0.44,5.2-2.01,9.97-1.95,15.26c0.05,4.56,7.14,4.57,7.09,0c-0.06-5.21,1.54-10.08,1.95-15.26
				c0.45-5.59,1.67-11.18,1.71-16.79c-2.36,0-4.72,0-7.09,0c-0.01,2.41,0.69,4.72,0.62,7.15c-0.08,2.99-0.8,6.25-1.62,9.13
				c-1.79,6.24-5.38,7.49-11.34,7.45c-3.24-0.02-7.31,0.14-8.11-3.47c-1.28-5.78,0.55-12.88,0.69-18.73
				C406.95,205.55,399.86,205.55,399.75,210.11L399.75,210.11z"/>
		</g>
	</g>
</g>
</svg>
