<?xml version="1.0" encoding="utf-8"?>
<!-- Generator: Adobe Illustrator 23.0.1, SVG Export Plug-In . SVG Version: 6.00 Build 0)  -->
<svg version="1.1" id="レイヤー_1" xmlns="http://www.w3.org/2000/svg" xmlns:xlink="http://www.w3.org/1999/xlink" x="0px"
	 y="0px" viewBox="0 0 623.62 368.5" style="enable-background:new 0 0 623.62 368.5;" xml:space="preserve">
<g>
	<g>
		<g>
			<path d="M183.09,139.27c2.5,30.52,4.69,61.06,7.05,91.59c0.24,3.1,5.06,5.32,6.6,1.79c6.42-14.73,11.03-30.31,16.53-45.4
				c5.82-15.96,11.41-32.36,18.5-47.8c-2.16-0.28-4.32-0.56-6.48-0.85c1.68,5.21,0.17,11.38-0.08,16.74
				c-0.38,8.42-0.65,16.84-0.94,25.26c-0.28,8.28-0.7,16.56-0.6,24.84c0.05,3.98,0.88,6.42,1.88,10.16c0.88,3.28-0.1,6.62,0.61,9.97
				c0.67,3.14,4.92,3.26,6.48,0.85c3.55-5.5,4.99-11.86,7.26-17.94c2.69-7.24,5.58-14.43,8.84-21.44
				c6.25-13.46,13.91-26.22,21.71-38.82c2.41-3.89-3.72-7.45-6.12-3.58c-7.8,12.6-15.46,25.36-21.71,38.82
				c-2.97,6.39-5.65,12.94-8.19,19.52c-2.53,6.58-4.07,13.91-7.91,19.86c2.16,0.28,4.32,0.56,6.48,0.85
				c-0.72-3.33,0.4-6.61-0.61-9.97c-1.27-4.2-1.66-7.58-1.63-12.08c0.05-8.31,0.45-16.62,0.74-24.92c0.28-8,0.41-16.03,0.94-24.02
				c0.35-5.26,1.35-10.84-0.31-15.98c-0.85-2.64-5.12-3.79-6.48-0.85c-6.82,14.86-12.25,30.55-17.89,45.88
				c-5.77,15.69-10.47,32-17.14,47.33c2.2,0.6,4.4,1.19,6.6,1.79c-2.36-30.53-4.55-61.07-7.05-91.59
				C189.8,134.76,182.71,134.72,183.09,139.27L183.09,139.27z"/>
		</g>
	</g>
	<g>
		<g>
			<path d="M302.78,175.92c-7-0.1-12.28,4.28-17.12,8.89c-4.56,4.34-7.13,9.14-7.2,15.55c-0.15,13.11,8.8,22.93,21.54,25.3
				c12.73,2.38,22.56-10.89,25.23-22.18c1.17-4.93,2.06-11.78-1.48-15.88c-3.29-3.81-8.93-9.17-14.15-9.4
				c-4.56-0.2-4.55,6.89,0,7.09c2,0.09,6.74,4.61,8.07,6.23c2.36,2.87,1.38,8.16,0.33,11.5c-1.25,3.99-3.73,7.86-6.4,11.06
				c-3.52,4.23-6.59,5.65-12,4.23c-8.57-2.25-13.8-8.37-14.05-17.21c-0.23-7.98,8.95-18.2,17.21-18.08
				C307.34,183.07,307.34,175.98,302.78,175.92L302.78,175.92z"/>
		</g>
	</g>
	<g>
		<g>
			<path d="M348.52,177.19c0.18,10.22-0.85,20.69-3.98,30.46c-1.3,4.06-4.58,10.54-1.23,14.33c1.69,1.92,5.43,1,5.92-1.56
				c0.75-3.96,0.51-7.98,1.34-11.99c1.03-4.93,2.88-9.25,5.23-13.69c1.84-3.49,4.13-7.46,7.84-9.15c3.97-1.81,9.83-2.64,14.2-2.58
				c4.56,0.06,4.56-7.03,0-7.09c-5.33-0.07-11.56,1.01-16.55,2.96c-4.16,1.62-6.96,4.88-9.42,8.5c-2.9,4.26-5.35,9.34-6.91,14.24
				c-0.83,2.62-1.37,5.37-1.83,8.08c-0.49,2.9-0.2,6-0.74,8.84c1.97-0.52,3.95-1.04,5.92-1.56c1.33,1.51,0.62,0.91,1.07-1.07
				c0.29-1.28,0.71-2.54,1.11-3.78c0.75-2.32,1.52-4.57,2.1-6.95c2.22-9.14,3.18-18.58,3.02-27.98
				C355.53,172.63,348.44,172.62,348.52,177.19L348.52,177.19z"/>
		</g>
	</g>
	<g>
		<g>
			<path d="M403.87,144.58c-0.63,13.56-5.67,26.68-8.1,39.96c-2.24,12.19-5.31,24.96-5.55,37.38c-0.09,4.56,7,4.56,7.09,0
				c0.13-6.79,1.43-13.37,2.76-20c1.28-6.41,1.89-12.93,3.34-19.3c2.83-12.49,6.95-25.18,7.55-38.03
				C411.17,140.02,404.09,140.03,403.87,144.58L403.87,144.58z"/>
		</g>
	</g>
	<g>
		<g>
			<path d="M399.84,198.17c4.59-0.59,8.42-2.41,12.64-4.19c3.95-1.67,8.4-2,11.9-4.63c3.6-2.71,0.07-8.87-3.58-6.12
				c-2.89,2.17-6.64,2.45-9.94,3.79c-3.61,1.47-7.1,3.56-11.02,4.07C395.38,191.66,395.32,198.75,399.84,198.17L399.84,198.17z"/>
		</g>
	</g>
	<g>
		<g>
			<path d="M400.32,197.69c6.56,4.11,12.26,8.7,18.22,13.59c5.11,4.19,10.8,9.15,16.66,12.19c4.04,2.1,7.63-4.01,3.58-6.12
				c-6.2-3.22-12.55-8.73-17.81-13.3c-5.42-4.7-10.99-8.67-17.07-12.48C400.02,189.14,396.46,195.27,400.32,197.69L400.32,197.69z"
				/>
		</g>
	</g>
</g>
</svg>
