<?xml version="1.0" encoding="utf-8"?>
<!-- Generator: Adobe Illustrator 22.1.0, SVG Export Plug-In . SVG Version: 6.00 Build 0)  -->
<svg version="1.1" id="レイヤー_1" xmlns="http://www.w3.org/2000/svg" xmlns:xlink="http://www.w3.org/1999/xlink" x="0px"
	 y="0px" viewBox="0 0 5 3" style="enable-background:new 0 0 5 3;" xml:space="preserve">
<style type="text/css">
	.st0{fill:#E6E6E6;}
</style>
<g>
	<g>
		<path class="st0" d="M0.6,0.7c0,0.3,0,0.6-0.1,0.9c0,0.1,0,0.5-0.1,0.6C0.4,2.4,0.6,2.5,0.7,2.3C0.9,2.2,0.8,2,0.8,1.8
			c0-0.4,0.1-0.7,0.1-1.1C0.9,0.5,0.6,0.5,0.6,0.7L0.6,0.7z"/>
	</g>
</g>
<g>
	<g>
		<path class="st0" d="M0.9,1.5c0.1,0,0.2,0.1,0.4,0.1c0.2,0,0.1-0.3-0.1-0.3c0,0-0.2-0.1-0.3-0.1C0.7,1.2,0.7,1.5,0.9,1.5L0.9,1.5z
			"/>
	</g>
</g>
<g>
	<g>
		<path class="st0" d="M1.5,0.9c0,0.4-0.2,0.8-0.1,1.2c0,0.2,0.3,0.1,0.3-0.1C1.6,1.7,1.7,1.3,1.8,0.9C1.8,0.8,1.5,0.8,1.5,0.9
			L1.5,0.9z"/>
	</g>
</g>
<g>
	<g>
		<path class="st0" d="M2.2,1.6C2,1.6,1.6,2.1,2,2.3C2.3,2.4,2.6,1.9,2.2,1.6c-0.1,0-0.2,0.2-0.1,0.2C2.4,2,2.1,2.2,2,2.1
			C2,2,2.1,1.8,2.2,1.8C2.3,1.8,2.3,1.6,2.2,1.6L2.2,1.6z"/>
	</g>
</g>
<g>
	<g>
		<path class="st0" d="M2.6,1c0,0.5,0,0.9,0,1.4c0,0,0.1,0,0.1,0c0,0,0-0.1,0-0.1C2.7,2,2.8,1.9,3,1.9c0.4-0.1-0.1,0.3-0.2,0.2
			C2.7,2.1,2.6,2.2,2.7,2.3C2.8,2.4,3,2.5,3.1,2.3c0.1-0.1,0.2-0.5,0.1-0.6c-0.1-0.1-0.3-0.1-0.4,0C2.6,1.8,2.6,2.1,2.6,2.3
			c0,0.1,0.1,0.1,0.1,0c0-0.5,0-0.9,0-1.4C2.7,0.9,2.6,0.9,2.6,1L2.6,1z"/>
	</g>
</g>
<g>
	<g>
		<path class="st0" d="M3.3,1.7c0,0.2,0.1,0.5,0.3,0.6c0.1,0,0.1,0,0.1-0.1c0,0,0,0,0,0c0-0.1-0.2,0-0.1,0.1c0,0,0,0,0,0
			c0,0,0.1-0.1,0.1-0.1C3.6,2.1,3.5,1.8,3.5,1.7C3.5,1.6,3.3,1.6,3.3,1.7L3.3,1.7z"/>
	</g>
</g>
<g>
	<g>
		<path class="st0" d="M3.9,1.8c0,0.3-0.4,0.7-0.7,0.7c-0.1,0-0.1,0.1,0,0.1C3.5,2.8,4,2.3,4,1.8C4,1.7,3.9,1.7,3.9,1.8L3.9,1.8z"/>
	</g>
</g>
</svg>
