<?xml version="1.0" encoding="utf-8"?>
<!-- Generator: Adobe Illustrator 22.1.0, SVG Export Plug-In . SVG Version: 6.00 Build 0)  -->
<svg version="1.1" id="レイヤー_1" xmlns="http://www.w3.org/2000/svg" xmlns:xlink="http://www.w3.org/1999/xlink" x="0px"
	 y="0px" viewBox="0 0 5 3" style="enable-background:new 0 0 5 3;" xml:space="preserve">
<style type="text/css">
	.st0{fill:#E6E6E6;}
</style>
<g>
	<g>
		<path class="st0" d="M0.6,0.7c0,0.3,0,0.6-0.1,0.9c0,0.1,0,0.5-0.1,0.6c0,0.2,0.2,0.3,0.3,0.1C0.9,2.2,0.8,2,0.8,1.8
			c0-0.4,0.1-0.7,0.1-1.1C0.9,0.5,0.6,0.5,0.6,0.7L0.6,0.7z"/>
	</g>
</g>
<g>
	<g>
		<path class="st0" d="M0.9,1.5c0.1,0,0.2,0.1,0.4,0.1s0.1-0.3-0.1-0.3c0,0-0.2-0.1-0.3-0.1C0.7,1.2,0.7,1.5,0.9,1.5L0.9,1.5z"/>
	</g>
</g>
<g>
	<g>
		<path class="st0" d="M1.5,0.9c0,0.4-0.2,0.8-0.1,1.2c0,0.2,0.3,0.1,0.3-0.1c-0.1-0.3,0-0.7,0.1-1.1C1.8,0.8,1.5,0.8,1.5,0.9
			L1.5,0.9z"/>
	</g>
</g>
<g>
	<g>
		<path class="st0" d="M2.2,1.6C2,1.6,1.6,2.1,2,2.3C2.3,2.4,2.6,1.9,2.2,1.6C2.1,1.6,2,1.8,2.1,1.8C2.4,2,2.1,2.2,2,2.1
			C2,2,2.1,1.8,2.2,1.8C2.3,1.8,2.3,1.6,2.2,1.6L2.2,1.6z"/>
	</g>
</g>
<g>
	<g>
		<path class="st0" d="M2.5,0.9c0,0.5,0,0.9,0,1.4h0.1V2.2c0-0.3,0.1-0.4,0.3-0.4C3.3,1.7,2.8,2.1,2.7,2C2.6,2,2.5,2.1,2.6,2.2
			c0.1,0.1,0.3,0.2,0.4,0c0.1-0.1,0.2-0.5,0.1-0.6C3,1.5,2.8,1.5,2.7,1.6C2.5,1.7,2.5,2,2.5,2.2c0,0.1,0.1,0.1,0.1,0
			c0-0.5,0-0.9,0-1.4C2.6,0.8,2.5,0.8,2.5,0.9L2.5,0.9z"/>
	</g>
</g>
<g>
	<g>
		<path class="st0" d="M4,1.8C4,2,4.1,2.3,4.3,2.4c0.1,0,0.1,0,0.1-0.1l0,0c0-0.1-0.2,0-0.1,0.1l0,0l0.1-0.1
			C4.3,2.2,4.2,1.9,4.2,1.8C4.2,1.7,4,1.7,4,1.8L4,1.8z"/>
	</g>
</g>
<g>
	<g>
		<path class="st0" d="M4.6,1.9c0,0.3-0.4,0.7-0.7,0.7c-0.1,0-0.1,0.1,0,0.1C4.2,2.9,4.7,2.4,4.6,1.9C4.7,1.8,4.6,1.8,4.6,1.9
			L4.6,1.9z"/>
	</g>
</g>
<g>
	<g>
		<path class="st0" d="M3.2,0.9c0,0.5,0,0.9,0,1.4h0.1V2.2c0-0.3,0.1-0.4,0.3-0.4C4.1,1.7,3.6,2.1,3.5,2C3.4,2,3.2,2.1,3.4,2.2
			c0.1,0.1,0.3,0.2,0.4,0C3.8,2.1,4,1.7,3.8,1.6c-0.1-0.1-0.3-0.1-0.4,0C3.2,1.7,3.2,2,3.2,2.2c0,0.1,0.1,0.1,0.1,0
			c0-0.5,0-0.9,0-1.4C3.4,0.8,3.2,0.8,3.2,0.9L3.2,0.9z"/>
	</g>
</g>
</svg>
