<?xml version="1.0" encoding="utf-8"?>
<!-- Generator: Adobe Illustrator 22.1.0, SVG Export Plug-In . SVG Version: 6.00 Build 0)  -->
<svg version="1.1" id="レイヤー_1" xmlns="http://www.w3.org/2000/svg" xmlns:xlink="http://www.w3.org/1999/xlink" x="0px"
	 y="0px" viewBox="0 0 5 3" style="enable-background:new 0 0 5 3;" xml:space="preserve">
<style type="text/css">
	.st0{fill:#E6E6E6;}
</style>
<g>
	<g>
		<path class="st0" d="M0.6,1c0,0.4-0.1,0.8-0.1,1.1C0.6,2.1,0.7,2,0.8,2l0,0C0.6,1.9,0.4,2.1,0.5,2.2l0,0c0.1,0.1,0.3,0,0.3-0.1
			c0-0.4,0.1-0.8,0.1-1.1C0.9,0.8,0.6,0.8,0.6,1L0.6,1z"/>
	</g>
</g>
<g>
	<g>
		<path class="st0" d="M0.7,1c0.1,0.4,0.2,0.7,0.4,1c0.1,0.2,0.4,0.1,0.3-0.1C1.2,1.6,1.1,1.3,0.9,1C0.9,0.8,0.6,0.9,0.7,1L0.7,1z"
			/>
	</g>
</g>
<g>
	<g>
		<path class="st0" d="M1.4,1c0,0.1-0.3,0.8-0.3,0.8c-0.2,0.1,0,0.4,0.2,0.3C1.4,2,1.4,1.8,1.4,1.7c0.1-0.2,0.2-0.4,0.2-0.6
			C1.7,0.9,1.4,0.8,1.4,1L1.4,1z"/>
	</g>
</g>
<g>
	<g>
		<path class="st0" d="M1.4,1.1c0,0.3,0.1,0.7,0.3,1c0-0.1,0-0.1,0.1-0.2l0,0C1.6,2,1.7,2.2,1.9,2.1l0,0C2,2.1,2,2,1.9,1.9
			C1.8,1.7,1.7,1.3,1.7,1.1S1.4,0.9,1.4,1.1L1.4,1.1z"/>
	</g>
</g>
<g>
	<g>
		<path class="st0" d="M2.3,1.5C2.4,1.7,2.5,1.9,2.6,2c0.1,0.1,0.2,0,0.1-0.1l0,0c0-0.1-0.2,0-0.1,0.1l0,0h0.1
			C2.6,1.8,2.4,1.7,2.4,1.5C2.4,1.4,2.2,1.4,2.3,1.5L2.3,1.5z"/>
	</g>
</g>
<g>
	<g>
		<path class="st0" d="M2.8,1.6C2.7,2,2.2,2.4,1.9,2.6c-0.1,0,0,0.2,0.1,0.1c0.4-0.2,0.9-0.6,1-1C3,1.5,2.8,1.5,2.8,1.6L2.8,1.6z"/>
	</g>
</g>
</svg>
