<?xml version="1.0" encoding="utf-8"?>
<!-- Generator: Adobe Illustrator 22.1.0, SVG Export Plug-In . SVG Version: 6.00 Build 0)  -->
<svg version="1.1" id="レイヤー_1" xmlns="http://www.w3.org/2000/svg" xmlns:xlink="http://www.w3.org/1999/xlink" x="0px"
	 y="0px" viewBox="0 0 5 3" style="enable-background:new 0 0 5 3;" xml:space="preserve">
<style type="text/css">
	.st0{fill:#E6E6E6;}
</style>
<g>
	<g>
		<path class="st0" d="M1.7,0.9c-0.3-0.2-0.7-0.4-0.9,0C0.7,1,0.7,1.2,0.8,1.4C0.8,1.5,0.9,1.6,1,1.7C1.4,2,0.9,2.3,0.8,2
			c0-0.2-0.3-0.1-0.3,0.1c0,0.2,0.1,0.3,0.3,0.4c0.2,0.1,0.6,0,0.7-0.2c0.1-0.2,0-0.4-0.1-0.5C1.4,1.6,1.3,1.5,1.2,1.4
			C1,1.3,1,1.2,1,1.1c0.2-0.2,0.3-0.2,0.5,0C1.6,1.2,1.8,1,1.7,0.9L1.7,0.9z"/>
	</g>
</g>
<g>
	<g>
		<path class="st0" d="M1.7,1.8c0.2,0.1,0.5,0.1,0.7,0.1c0.1,0,0.1-0.2,0-0.1c-0.2,0-0.4,0-0.6-0.1C1.7,1.6,1.6,1.7,1.7,1.8L1.7,1.8
			z"/>
	</g>
</g>
<g>
	<g>
		<path class="st0" d="M2,1.5c0,0.3-0.1,0.5-0.2,0.8c0,0.1,0.1,0.1,0.1,0c0-0.3,0.2-0.5,0.2-0.8C2.1,1.4,2,1.4,2,1.5L2,1.5z"/>
	</g>
</g>
<g>
	<g>
		<path class="st0" d="M2.2,2c0,0.7,0.8,0.2,0.6-0.2c0-0.1-0.1,0-0.1,0c0,0.2,0,0.4,0.2,0.5c0.1,0.1,0.2,0,0.1-0.1
			C2.8,2.2,2.8,2,2.8,1.9c0,0-0.1,0-0.1,0C2.4,2.2,2.3,2.2,2.4,2C2.4,1.9,2.2,1.9,2.2,2L2.2,2z"/>
	</g>
</g>
<g>
	<g>
		<path class="st0" d="M3.4,1.8C3,1.7,2.8,2.3,3.1,2.4c0.7,0.3,0.4-1,0.3-1.2c0-0.1-0.1-0.1-0.1,0c0,0.4,0,1,0.3,1.2
			c0,0,0.1,0,0.1,0c0,0,0,0,0,0c0-0.1-0.1-0.1-0.1,0c0,0,0,0,0,0c0,0,0.1,0,0.1,0C3.5,2.1,3.4,1.5,3.4,1.2c0,0-0.1,0-0.1,0
			C3.3,1.4,3.4,1.6,3.4,1.8c0,0,0,0.2,0,0.3C3.2,2.6,3,1.9,3.4,2C3.5,2,3.5,1.9,3.4,1.8L3.4,1.8z"/>
	</g>
</g>
<g>
	<g>
		<path class="st0" d="M3.7,1.9c0,0.2,0.1,0.5,0.4,0.5c0.1,0,0.1-0.1,0-0.1c0,0,0,0,0,0C4,2.2,3.9,2.4,4,2.4c0,0,0,0,0,0
			c0,0,0-0.1,0-0.1C3.9,2.3,3.8,2,3.8,1.9C3.8,1.8,3.7,1.8,3.7,1.9L3.7,1.9z"/>
	</g>
</g>
<g>
	<g>
		<path class="st0" d="M4.3,1.9c0,0.4-0.5,0.7-0.8,0.8c-0.1,0-0.1,0.2,0,0.1c0.4-0.1,0.9-0.5,0.9-0.9C4.4,1.8,4.3,1.8,4.3,1.9
			L4.3,1.9z"/>
	</g>
</g>
</svg>
